<?xml version="1.0" encoding="UTF-8" ?>
<!DOCTYPE svg PUBLIC "-//W3C//DTD SVG 1.1//EN" "http://www.w3.org/Graphics/SVG/1.1/DTD/svg11.dtd">
<svg width="118pt" height="24pt" viewBox="0 0 118 24" version="1.1" xmlns="http://www.w3.org/2000/svg">
<g id="#ff5912ff">
<path fill="#ff5912" opacity="1.00" d=" M 57.09 0.00 L 60.36 0.00 C 69.05 0.62 75.93 8.39 76.17 16.99 C 72.73 17.02 69.28 16.88 65.84 17.14 C 66.34 14.09 66.38 10.52 69.35 8.70 C 68.09 8.65 66.84 8.59 65.58 8.53 C 64.11 6.98 62.47 5.62 60.58 4.61 C 61.78 6.00 63.03 7.34 64.30 8.66 C 60.76 8.61 57.23 8.61 53.70 8.66 C 54.97 7.34 56.22 6.00 57.41 4.61 C 55.54 5.64 53.88 7.00 52.40 8.53 C 51.15 8.59 49.90 8.65 48.65 8.70 C 51.62 10.51 51.65 14.09 52.14 17.13 C 48.71 16.88 45.27 17.02 41.84 16.98 C 42.07 8.55 48.65 1.01 57.09 0.00 Z" />
</g>
<g id="#34404bff">
<path fill="#34404b" opacity="1.00" d=" M 0.00 6.25 C 1.84 -0.06 9.52 1.09 14.46 2.13 C 14.31 3.56 14.14 5.00 13.96 6.43 C 10.69 6.40 6.41 4.66 4.22 8.03 C 7.03 9.67 10.29 10.36 13.05 12.07 C 16.34 15.01 15.23 21.67 10.77 22.89 C 7.62 23.72 4.28 23.31 1.14 22.63 C 0.42 21.27 1.07 19.64 1.01 18.18 C 2.99 18.43 4.98 18.73 6.98 18.76 C 8.50 18.87 10.68 18.06 10.01 16.15 C 6.70 13.85 1.39 14.01 0.00 9.47 L 0.00 6.25 Z" />
<path fill="#34404b" opacity="1.00" d=" M 17.28 1.89 C 18.87 1.79 20.46 1.79 22.05 1.67 C 22.05 4.42 22.08 7.16 22.10 9.91 C 24.40 9.93 26.71 9.93 29.02 9.94 C 29.06 7.26 29.09 4.57 29.05 1.88 C 30.69 1.82 32.34 1.77 33.98 1.74 C 33.88 8.83 33.95 15.92 33.93 23.01 C 32.32 22.99 30.71 22.98 29.09 22.97 C 29.09 20.12 29.05 17.27 29.03 14.42 C 26.72 14.45 24.40 14.47 22.09 14.49 C 22.07 17.33 22.05 20.16 22.06 23.00 C 20.48 22.99 18.91 22.99 17.33 22.99 C 17.31 15.95 17.40 8.92 17.28 1.89 Z" />
<path fill="#34404b" opacity="1.00" d=" M 84.28 1.88 C 88.06 1.82 91.95 1.30 95.67 2.18 C 100.42 3.99 100.66 10.63 98.39 14.44 C 96.24 17.48 92.35 17.19 89.07 17.08 C 89.07 19.06 89.06 21.03 89.06 23.00 C 87.48 22.99 85.90 22.99 84.33 22.99 C 84.31 15.95 84.40 8.92 84.28 1.88 M 89.08 6.22 C 89.08 8.32 89.07 10.41 89.07 12.51 C 90.65 12.41 92.41 12.84 93.82 11.87 C 95.18 10.67 95.51 8.17 93.91 7.04 C 92.63 5.77 90.67 6.42 89.08 6.22 Z" />
<path fill="#34404b" opacity="1.00" d=" M 99.78 1.87 C 101.60 1.81 103.41 1.74 105.23 1.68 C 106.32 3.90 107.42 6.11 108.51 8.33 C 109.67 6.13 110.85 3.93 111.97 1.71 C 113.78 1.73 115.59 1.75 117.40 1.76 C 115.64 5.19 113.90 8.63 112.07 12.02 C 110.10 15.34 111.17 19.35 110.95 23.00 C 109.31 22.99 107.69 22.99 106.06 23.00 C 105.92 19.74 106.49 16.38 105.71 13.19 C 103.85 9.36 101.69 5.68 99.78 1.87 Z" />
</g>
<g id="#ffffffff">
<path fill="#ffffff" opacity="1.00" d=" M 52.40 8.53 C 53.88 7.00 55.54 5.64 57.41 4.61 C 56.22 6.00 54.97 7.34 53.70 8.66 C 57.23 8.61 60.76 8.61 64.30 8.66 C 63.03 7.34 61.78 6.00 60.58 4.61 C 62.47 5.62 64.11 6.98 65.58 8.53 C 66.84 8.59 68.09 8.65 69.35 8.70 C 66.38 10.52 66.34 14.09 65.84 17.14 C 65.66 17.33 65.30 17.71 65.12 17.91 C 61.03 18.08 56.93 18.07 52.85 17.91 C 52.67 17.71 52.32 17.33 52.14 17.13 C 51.65 14.09 51.62 10.51 48.65 8.70 C 49.90 8.65 51.15 8.59 52.40 8.53 Z" />
</g>
</svg>
